<svg width="1200" height="330" viewBox="0 0 1200 330" fill="none" xmlns="http://www.w3.org/2000/svg">
  <defs>
    <linearGradient id="bg" x1="0" y1="0" x2="1200" y2="330" gradientUnits="userSpaceOnUse"><stop stop-color="#080D20"/><stop offset=".48" stop-color="#15285A"/><stop offset="1" stop-color="#082B36"/></linearGradient>
    <linearGradient id="plane" x1="130" y1="250" x2="1060" y2="250" gradientUnits="userSpaceOnUse"><stop stop-color="#1E3A8A"/><stop offset=".5" stop-color="#312E81"/><stop offset="1" stop-color="#0F766E"/></linearGradient>
    <filter id="glow" x="-50%" y="-50%" width="200%" height="200%"><feGaussianBlur stdDeviation="5" result="b"/><feMerge><feMergeNode in="b"/><feMergeNode in="SourceGraphic"/></feMerge></filter>
    <filter id="shadow" x="-50%" y="-50%" width="200%" height="200%"><feGaussianBlur stdDeviation="13"/></filter>
    <pattern id="grid" width="32" height="32" patternUnits="userSpaceOnUse"><path d="M32 0H0V32" fill="none" stroke="#67E8F9" stroke-opacity=".08"/></pattern>
  </defs>
  <rect width="1200" height="330" rx="22" fill="url(#bg)"/>
  <rect width="1200" height="330" rx="22" fill="url(#grid)"/>
  <ellipse cx="600" cy="252" rx="475" ry="52" fill="#030712" fill-opacity=".6" filter="url(#shadow)"/>
  <path d="M130 244L600 174L1070 244L600 313Z" fill="url(#plane)" fill-opacity=".65" stroke="#67E8F9" stroke-opacity=".5" stroke-width="2"/>
  <path d="M203 245L600 187L997 245L600 301Z" fill="none" stroke="#A5F3FC" stroke-opacity=".18"/>
  <g fill="none" stroke="#67E8F9" stroke-opacity=".45" stroke-width="2" stroke-dasharray="5 8"><ellipse cx="600" cy="177" rx="382" ry="77"><animateTransform attributeName="transform" type="rotate" values="0 600 177;360 600 177" dur="16s" repeatCount="indefinite"/></ellipse><ellipse cx="600" cy="177" rx="270" ry="45"><animateTransform attributeName="transform" type="rotate" values="360 600 177;0 600 177" dur="12s" repeatCount="indefinite"/></ellipse></g>
  <g font-family="ui-monospace,monospace" letter-spacing="2" fill="#CFFAFE"><text x="34" y="36" font-size="13">TECH_DECK / FULL_STACK</text><text x="1165" y="36" font-size="12" text-anchor="end" fill="#6EE7B7">● ALWAYS LEARNING</text></g>

  <!-- floating 3D tiles: top, left, right faces + front label -->
  <g font-family="ui-monospace,monospace" font-weight="700" text-anchor="middle" filter="url(#glow)">
    <g><animateTransform attributeName="transform" type="translate" values="0 0;0 -9;0 0" dur="3.4s" repeatCount="indefinite"/><path d="M174 155L215 142L256 155L215 169Z" fill="#FDE047"/><path d="M174 155L215 169V211L174 194Z" fill="#CA8A04"/><path d="M215 169L256 155V197L215 211Z" fill="#EAB308"/><text x="215" y="190" fill="#1F2937" font-size="15">JS</text></g>
    <g><animateTransform attributeName="transform" type="translate" values="0 0;0 -7;0 0" dur="3.8s" begin="-.8s" repeatCount="indefinite"/><path d="M320 119L361 106L402 119L361 133Z" fill="#22D3EE"/><path d="M320 119L361 133V175L320 158Z" fill="#0E7490"/><path d="M361 133L402 119V161L361 175Z" fill="#0891B2"/><text x="361" y="154" fill="white" font-size="14">REACT</text></g>
    <g><animateTransform attributeName="transform" type="translate" values="0 0;0 -10;0 0" dur="3.1s" begin="-.4s" repeatCount="indefinite"/><path d="M467 154L508 141L549 154L508 168Z" fill="#A3E635"/><path d="M467 154L508 168V210L467 193Z" fill="#3F6212"/><path d="M508 168L549 154V196L508 210Z" fill="#4D7C0F"/><text x="508" y="189" fill="white" font-size="12">NODE</text></g>
    <g><animateTransform attributeName="transform" type="translate" values="0 0;0 -8;0 0" dur="3.6s" begin="-1.2s" repeatCount="indefinite"/><path d="M651 107L692 94L733 107L692 121Z" fill="#C4B5FD"/><path d="M651 107L692 121V163L651 146Z" fill="#5B21B6"/><path d="M692 121L733 107V149L692 163Z" fill="#6D28D9"/><text x="692" y="142" fill="white" font-size="11">EXPRESS</text></g>
    <g><animateTransform attributeName="transform" type="translate" values="0 0;0 -11;0 0" dur="3.3s" begin="-1s" repeatCount="indefinite"/><path d="M798 153L839 140L880 153L839 167Z" fill="#34D399"/><path d="M798 153L839 167V209L798 192Z" fill="#047857"/><path d="M839 167L880 153V195L839 209Z" fill="#059669"/><text x="839" y="188" fill="white" font-size="11">MONGO</text></g>
    <g><animateTransform attributeName="transform" type="translate" values="0 0;0 -7;0 0" dur="3.9s" begin="-.3s" repeatCount="indefinite"/><path d="M944 119L985 106L1026 119L985 133Z" fill="#FB7185"/><path d="M944 119L985 133V175L944 158Z" fill="#9F1239"/><path d="M985 133L1026 119V161L985 175Z" fill="#BE123C"/><text x="985" y="154" fill="white" font-size="12">REDIS</text></g>
  </g>
  <g font-family="ui-monospace,monospace" font-size="12" letter-spacing="1.6" fill="#A5F3FC"><text x="600" y="287" text-anchor="middle">FRONTEND  ·  BACKEND  ·  DATA  ·  REAL-TIME SYSTEMS</text></g>
  <rect x="1" y="1" width="1198" height="328" rx="21" stroke="#67E8F9" stroke-opacity=".27" stroke-width="2"/>
</svg>
